<svg width="34" height="24" viewBox="0 0 34 24" fill="none" xmlns="http://www.w3.org/2000/svg">
<path fill-rule="evenodd" clip-rule="evenodd" d="M5 0C2.23859 0 0 2.23858 0 5V6H11V2C11 0.895432 11.8954 0 13 0H5ZM11 18H0V19C0 21.7614 2.23859 24 5 24H13C11.8954 24 11 23.1046 11 22V18ZM21 0C22.1046 0 23 0.895432 23 2V6H34V5C34 2.23858 31.7614 0 29 0H21ZM23 22V18L34 18V19C34 21.7614 31.7614 24 29 24H21C22.1046 24 23 23.1046 23 22Z" fill="#F0C753"/>
<path fill-rule="evenodd" clip-rule="evenodd" d="M12 2C12 0.89543 12.8954 0 14 0H20C21.1046 0 22 0.895431 22 2L22 6C20.8954 6 20 6.89543 20 8V16C20 17.1046 20.8954 18 22 18L22 22C22 23.1046 21.1046 24 20 24H14C12.8954 24 12 23.1046 12 22V18C13.1046 18 14 17.1046 14 16L14 8C14 6.89543 13.1046 6 12 6V2Z" fill="#F7CB6B"/>
<path d="M34 7L34 17L23 17C21.8954 17 21 16.1046 21 15L21 9C21 7.89543 21.8954 7 23 7L34 7Z" fill="#F7CB6B"/>
<path d="M0 17L1.19249e-07 7L11 7C12.1046 7 13 7.89543 13 9L13 15C13 16.1046 12.1046 17 11 17L0 17Z" fill="#F7CB6B"/>
</svg>
