<svg width="247" height="288" viewBox="0 0 247 288" fill="none" xmlns="http://www.w3.org/2000/svg">
<path fill-rule="evenodd" clip-rule="evenodd" d="M15 288H168.6C195 288 214.467 282.667 227 272C239.8 261.333 246.2 244.8 246.2 222.4V185.6C246.2 166.133 242.067 151.333 233.8 141.2C225.533 131.067 212.867 125.2 195.8 123.6C203.8 120.133 209.667 114.933 213.4 108C217.4 100.8 219.4 91.6 219.4 80.4V61.2C219.4 40.4 213.133 25.0667 200.6 15.2C188.067 5.06666 168.733 0 142.6 0H15C9.93334 0 6.20001 1.2 3.80001 3.6C1.66667 5.73334 0.600006 9.33334 0.600006 14.4V273.6C0.600006 278.667 1.66667 282.4 3.80001 284.8C6.20001 286.933 9.93334 288 15 288ZM148.655 53.088C152.782 56.0957 154.283 61.5642 152.27 66.2467L126.042 127.597H164.072C168.642 127.597 172.701 130.434 174.304 134.672C175.907 138.91 174.679 143.729 171.268 146.737L83.9537 223.297C80.0996 226.646 74.4719 226.92 70.3449 223.912C66.2179 220.904 64.7172 215.436 66.7295 210.753L92.958 149.437H54.9285C50.3922 149.437 46.2993 146.566 44.6963 142.328C43.0932 138.09 44.3211 133.271 47.7318 130.263L135.046 53.7032C138.9 50.3537 144.528 50.0803 148.655 53.088Z" fill="white"/>
</svg>
