<svg width="717" height="288" viewBox="0 0 717 288" fill="none" xmlns="http://www.w3.org/2000/svg">
<path fill-rule="evenodd" clip-rule="evenodd" d="M250 288H403.6C430 288 449.467 282.667 462 272C474.8 261.333 481.2 244.8 481.2 222.4V185.6C481.2 166.133 477.067 151.333 468.8 141.2C460.533 131.067 447.867 125.2 430.8 123.6C438.8 120.133 444.667 114.933 448.4 108C452.4 100.8 454.4 91.6 454.4 80.4V61.2C454.4 40.4 448.133 25.0667 435.6 15.2C423.067 5.06666 403.733 0 377.6 0H250C244.933 0 241.2 1.2 238.8 3.6C236.667 5.73334 235.6 9.33334 235.6 14.4V273.6C235.6 278.667 236.667 282.4 238.8 284.8C241.2 286.933 244.933 288 250 288ZM383.655 53.088C387.782 56.0957 389.283 61.5642 387.27 66.2467L361.042 127.597H399.072C403.642 127.597 407.701 130.434 409.304 134.672C410.907 138.91 409.679 143.729 406.268 146.737L318.954 223.297C315.1 226.646 309.472 226.92 305.345 223.912C301.218 220.904 299.717 215.436 301.73 210.753L327.958 149.437H289.928C285.392 149.437 281.299 146.566 279.696 142.328C278.093 138.09 279.321 133.271 282.732 130.263L370.046 53.7032C373.9 50.3537 379.528 50.0803 383.655 53.088Z" fill="white"/>
</svg>
