<svg width="764" height="72" viewBox="0 0 764 72" fill="none" xmlns="http://www.w3.org/2000/svg">
<path d="M38.9 72H22.7C21.4333 72 20.5 71.7333 19.9 71.2C19.3667 70.6 19.1 69.6667 19.1 68.4V19.3H4.4C3.13333 19.3 2.2 19.0333 1.6 18.5C1.06667 17.9 0.8 16.9667 0.8 15.7V3.6C0.8 2.33333 1.06667 1.43333 1.6 0.899997C2.2 0.299997 3.13333 -2.86102e-06 4.4 -2.86102e-06H57.2C58.4667 -2.86102e-06 59.3667 0.299997 59.9 0.899997C60.5 1.43333 60.8 2.33333 60.8 3.6V15.7C60.8 16.9667 60.5 17.9 59.9 18.5C59.3667 19.0333 58.4667 19.3 57.2 19.3H42.5V68.4C42.5 69.6667 42.2 70.6 41.6 71.2C41.0667 71.7333 40.1667 72 38.9 72ZM93.125 18V30.8H100.625C102.358 30.8 103.525 30.3667 104.125 29.5C104.725 28.5667 105.025 27.4333 105.025 26.1V22.7C105.025 21.3667 104.725 20.2667 104.125 19.4C103.525 18.4667 102.358 18 100.625 18H93.125ZM89.525 72H74.125C72.8583 72 71.925 71.7333 71.325 71.2C70.7917 70.6 70.525 69.6667 70.525 68.4V3.6C70.525 2.33333 70.7917 1.43333 71.325 0.899997C71.925 0.299997 72.8583 -2.86102e-06 74.125 -2.86102e-06H107.425C114.892 -2.86102e-06 120.025 1.56666 122.825 4.7C125.692 7.76666 127.125 11.7667 127.125 16.7V21.3C127.125 24.1 126.692 26.5 125.825 28.5C125.025 30.4333 123.592 31.8333 121.525 32.7C125.125 33.1 128.025 34.5667 130.225 37.1C132.492 39.6333 133.625 43 133.625 47.2V68.4C133.625 69.6667 133.325 70.6 132.725 71.2C132.192 71.7333 131.292 72 130.025 72H114.525C113.258 72 112.325 71.7333 111.725 71.2C111.192 70.6 110.925 69.6667 110.925 68.4V53.1C110.925 51.6333 110.625 50.5667 110.025 49.9C109.492 49.1667 108.525 48.8 107.125 48.8H93.125V68.4C93.125 69.6667 92.825 70.6 92.225 71.2C91.6917 71.7333 90.7917 72 89.525 72ZM170.941 21L166.241 36.2H181.941L177.241 21C176.975 20.4 176.675 19.9667 176.341 19.7C176.075 19.4333 175.741 19.3 175.341 19.3H172.841C172.441 19.3 172.075 19.4333 171.741 19.7C171.475 19.9667 171.208 20.4 170.941 21ZM165.241 68.4C165.241 69.6667 164.941 70.6 164.341 71.2C163.808 71.7333 162.908 72 161.641 72H146.941C145.675 72 144.741 71.7333 144.141 71.2C143.608 70.6 143.341 69.6667 143.341 68.4V42C143.341 40 143.641 37.7 144.241 35.1C144.908 32.5 145.908 29.4667 147.241 26L155.941 3.3C156.341 2.16666 156.941 1.33333 157.741 0.799999C158.608 0.266664 159.708 -2.86102e-06 161.041 -2.86102e-06H187.941C189.208 -2.86102e-06 190.241 0.266664 191.041 0.799999C191.908 1.33333 192.541 2.16666 192.941 3.3L201.641 26C202.975 29.4667 203.941 32.5 204.541 35.1C205.208 37.7 205.541 40 205.541 42V68.4C205.541 69.6667 205.241 70.6 204.641 71.2C204.108 71.7333 203.208 72 201.941 72H186.841C185.508 72 184.508 71.7333 183.841 71.2C183.241 70.6 182.941 69.6667 182.941 68.4V54.4H165.241V68.4ZM236.488 72H221.488C220.222 72 219.288 71.7333 218.688 71.2C218.155 70.6 217.888 69.6667 217.888 68.4V3.6C217.888 2.33333 218.155 1.43333 218.688 0.899997C219.288 0.299997 220.222 -2.86102e-06 221.488 -2.86102e-06H231.888C233.155 -2.86102e-06 234.222 0.199997 235.088 0.599995C236.022 0.999998 236.922 1.7 237.788 2.7L257.188 24.9V3.6C257.188 2.33333 257.455 1.43333 257.988 0.899997C258.588 0.299997 259.522 -2.86102e-06 260.788 -2.86102e-06H275.788C277.055 -2.86102e-06 277.955 0.299997 278.488 0.899997C279.088 1.43333 279.388 2.33333 279.388 3.6V68.4C279.388 69.6667 279.088 70.6 278.488 71.2C277.955 71.7333 277.055 72 275.788 72H260.788C259.522 72 258.588 71.7333 257.988 71.2C257.455 70.6 257.188 69.6667 257.188 68.4V56.1L240.088 35.4V68.4C240.088 69.6667 239.788 70.6 239.188 71.2C238.655 71.7333 237.755 72 236.488 72ZM326.581 72H294.981C293.715 72 292.781 71.7333 292.181 71.2C291.648 70.6 291.381 69.6667 291.381 68.4V56.7C291.381 55.4333 291.648 54.5333 292.181 54C292.781 53.4 293.715 53.1 294.981 53.1H321.881C322.748 53.1 323.381 52.8333 323.781 52.3C324.248 51.7 324.481 51 324.481 50.2C324.481 49.0667 324.248 48.2333 323.781 47.7C323.381 47.1667 322.748 46.8667 321.881 46.8L306.881 44.7C302.215 44.0333 298.448 42.5 295.581 40.1C292.781 37.7 291.381 33.7 291.381 28.1V17.6C291.381 11.9333 293.215 7.6 296.881 4.6C300.548 1.53333 305.615 -2.86102e-06 312.081 -2.86102e-06H340.081C341.348 -2.86102e-06 342.248 0.299997 342.781 0.899997C343.381 1.43333 343.681 2.33333 343.681 3.6V15.5C343.681 16.7667 343.381 17.7 342.781 18.3C342.248 18.8333 341.348 19.1 340.081 19.1H316.781C315.915 19.1 315.248 19.4 314.781 20C314.315 20.5333 314.081 21.2333 314.081 22.1C314.081 22.9667 314.315 23.7 314.781 24.3C315.248 24.9 315.915 25.2333 316.781 25.3L331.681 27.3C336.348 27.9667 340.115 29.5 342.981 31.9C345.848 34.3 347.281 38.3 347.281 43.9V54.4C347.281 60.0667 345.415 64.4333 341.681 67.5C338.015 70.5 332.981 72 326.581 72ZM377.32 72H361.82C360.554 72 359.62 71.7333 359.02 71.2C358.487 70.6 358.22 69.6667 358.22 68.4V3.6C358.22 2.33333 358.487 1.43333 359.02 0.899997C359.62 0.299997 360.554 -2.86102e-06 361.82 -2.86102e-06H406.42C407.687 -2.86102e-06 408.587 0.299997 409.12 0.899997C409.72 1.43333 410.02 2.33333 410.02 3.6V15.5C410.02 16.7667 409.72 17.7 409.12 18.3C408.587 18.8333 407.687 19.1 406.42 19.1H380.92V29.5H398.32C399.587 29.5 400.487 29.8 401.02 30.4C401.62 30.9333 401.92 31.8333 401.92 33.1V45.1C401.92 46.3667 401.62 47.3 401.02 47.9C400.487 48.4333 399.587 48.7 398.32 48.7H380.92V68.4C380.92 69.6667 380.62 70.6 380.02 71.2C379.487 71.7333 378.587 72 377.32 72ZM422.037 72C420.77 72 419.837 71.7333 419.237 71.2C418.703 70.6 418.437 69.6667 418.437 68.4V56.5C418.437 55.2333 418.703 54.3333 419.237 53.8C419.837 53.2 420.77 52.9 422.037 52.9H431.937V19.3H422.037C420.77 19.3 419.837 19.0333 419.237 18.5C418.703 17.9 418.437 16.9667 418.437 15.7V3.6C418.437 2.33333 418.703 1.43333 419.237 0.899997C419.837 0.299997 420.77 -2.86102e-06 422.037 -2.86102e-06H464.637C465.903 -2.86102e-06 466.803 0.299997 467.337 0.899997C467.937 1.43333 468.237 2.33333 468.237 3.6V15.7C468.237 16.9667 467.937 17.9 467.337 18.5C466.803 19.0333 465.903 19.3 464.637 19.3H454.937V52.9H464.637C465.903 52.9 466.803 53.2 467.337 53.8C467.937 54.3333 468.237 55.2333 468.237 56.5V68.4C468.237 69.6667 467.937 70.6 467.337 71.2C466.803 71.7333 465.903 72 464.637 72H422.037ZM522.584 72H484.184C482.917 72 481.984 71.7333 481.384 71.2C480.85 70.6 480.584 69.6667 480.584 68.4V3.6C480.584 2.33333 480.85 1.43333 481.384 0.899997C481.984 0.299997 482.917 -2.86102e-06 484.184 -2.86102e-06H516.084C522.617 -2.86102e-06 527.45 1.26666 530.584 3.8C533.717 6.26666 535.284 10.1 535.284 15.3V20.1C535.284 22.9 534.784 25.2 533.784 27C532.85 28.7333 531.384 30.0333 529.384 30.9C533.65 31.3 536.817 32.7667 538.884 35.3C540.95 37.8333 541.984 41.5333 541.984 46.4V55.6C541.984 61.2 540.384 65.3333 537.184 68C534.05 70.6667 529.184 72 522.584 72ZM503.084 17V27.8H511.584C512.85 27.8 513.784 27.4667 514.384 26.8C515.05 26.1333 515.384 25.1333 515.384 23.8V21C515.384 19.6667 515.05 18.6667 514.384 18C513.784 17.3333 512.85 17 511.584 17H503.084ZM503.084 43.2V55H516.084C517.35 55 518.284 54.6667 518.884 54C519.55 53.3333 519.884 52.3333 519.884 51V47.1C519.884 45.7667 519.55 44.8 518.884 44.2C518.284 43.5333 517.35 43.2 516.084 43.2H503.084ZM579.145 21L574.445 36.2H590.145L585.445 21C585.178 20.4 584.878 19.9667 584.545 19.7C584.278 19.4333 583.945 19.3 583.545 19.3H581.045C580.645 19.3 580.278 19.4333 579.945 19.7C579.678 19.9667 579.411 20.4 579.145 21ZM573.445 68.4C573.445 69.6667 573.145 70.6 572.545 71.2C572.011 71.7333 571.111 72 569.845 72H555.145C553.878 72 552.945 71.7333 552.345 71.2C551.811 70.6 551.545 69.6667 551.545 68.4V42C551.545 40 551.845 37.7 552.445 35.1C553.111 32.5 554.111 29.4667 555.445 26L564.145 3.3C564.545 2.16666 565.145 1.33333 565.945 0.799999C566.811 0.266664 567.911 -2.86102e-06 569.245 -2.86102e-06H596.145C597.411 -2.86102e-06 598.445 0.266664 599.245 0.799999C600.111 1.33333 600.745 2.16666 601.145 3.3L609.845 26C611.178 29.4667 612.145 32.5 612.745 35.1C613.411 37.7 613.745 40 613.745 42V68.4C613.745 69.6667 613.445 70.6 612.845 71.2C612.311 71.7333 611.411 72 610.145 72H595.045C593.711 72 592.711 71.7333 592.045 71.2C591.445 70.6 591.145 69.6667 591.145 68.4V54.4H573.445V68.4ZM644.691 72H629.691C628.425 72 627.491 71.7333 626.891 71.2C626.358 70.6 626.091 69.6667 626.091 68.4V3.6C626.091 2.33333 626.358 1.43333 626.891 0.899997C627.491 0.299997 628.425 -2.86102e-06 629.691 -2.86102e-06H640.091C641.358 -2.86102e-06 642.425 0.199997 643.291 0.599995C644.225 0.999998 645.125 1.7 645.991 2.7L665.391 24.9V3.6C665.391 2.33333 665.658 1.43333 666.191 0.899997C666.791 0.299997 667.725 -2.86102e-06 668.991 -2.86102e-06H683.991C685.258 -2.86102e-06 686.158 0.299997 686.691 0.899997C687.291 1.43333 687.591 2.33333 687.591 3.6V68.4C687.591 69.6667 687.291 70.6 686.691 71.2C686.158 71.7333 685.258 72 683.991 72H668.991C667.725 72 666.791 71.7333 666.191 71.2C665.658 70.6 665.391 69.6667 665.391 68.4V56.1L648.291 35.4V68.4C648.291 69.6667 647.991 70.6 647.391 71.2C646.858 71.7333 645.958 72 644.691 72ZM720.484 72H704.984C703.718 72 702.784 71.7333 702.184 71.2C701.651 70.6 701.384 69.6667 701.384 68.4V3.6C701.384 2.33333 701.651 1.43333 702.184 0.899997C702.784 0.299997 703.718 -2.86102e-06 704.984 -2.86102e-06H720.484C721.751 -2.86102e-06 722.651 0.299997 723.184 0.899997C723.784 1.43333 724.084 2.33333 724.084 3.6V26.6H728.084L738.384 3.3C738.851 2.1 739.484 1.26666 740.284 0.799999C741.084 0.266664 742.118 -2.86102e-06 743.384 -2.86102e-06H758.784C759.918 -2.86102e-06 760.684 0.299997 761.084 0.899997C761.484 1.43333 761.451 2.23333 760.984 3.3L750.784 26.6C754.518 26.8 757.484 28.1333 759.684 30.6C761.951 33 763.084 36.2 763.084 40.2V68.4C763.084 69.6667 762.784 70.6 762.184 71.2C761.651 71.7333 760.751 72 759.484 72H744.084C742.818 72 741.884 71.7333 741.284 71.2C740.751 70.6 740.484 69.6667 740.484 68.4V48.9C740.484 47.8333 740.218 47 739.684 46.4C739.151 45.8 738.351 45.5 737.284 45.5H724.084V68.4C724.084 69.6667 723.784 70.6 723.184 71.2C722.651 71.7333 721.751 72 720.484 72Z" fill="white"/>
</svg>
